<svg width="37" height="40" viewBox="0 0 37 40" fill="none" xmlns="http://www.w3.org/2000/svg">
<path d="M26.1738 0.0075672C25.898 0.0370724 25.6363 0.144184 25.4191 0.316405C25.202 0.488626 25.0384 0.718864 24.9473 0.980317C24.8563 1.24177 24.8415 1.52367 24.9048 1.79315C24.9681 2.06264 25.1069 2.30864 25.3049 2.50247L25.7469 2.94365H6.82928C6.7785 2.94101 6.72762 2.94101 6.67684 2.94365C6.48454 2.95348 6.29608 3.00103 6.12221 3.08359C5.94834 3.16614 5.79248 3.28206 5.66353 3.42476C5.53458 3.56746 5.43508 3.73414 5.37071 3.91524C5.30634 4.09634 5.27836 4.28829 5.28837 4.48019C5.29839 4.67208 5.3462 4.86014 5.42908 5.03358C5.51195 5.20702 5.62826 5.36246 5.77137 5.49102C5.91447 5.61958 6.08156 5.71874 6.26308 5.78282C6.4446 5.84691 6.637 5.87465 6.82928 5.86449H25.7317L25.3049 6.29046C25.1551 6.42289 25.0342 6.58455 24.9495 6.76546C24.8649 6.94636 24.8183 7.14267 24.8126 7.34225C24.807 7.54184 24.8424 7.74045 24.9167 7.92584C24.9909 8.11123 25.1025 8.27944 25.2445 8.4201C25.3865 8.56076 25.5559 8.67088 25.7422 8.74365C25.9285 8.81641 26.1278 8.8503 26.3277 8.84318C26.5277 8.83606 26.724 8.78812 26.9047 8.70229C27.0853 8.61647 27.2464 8.49458 27.378 8.34418L30.3048 5.42334C30.5757 5.14993 30.7276 4.78094 30.7276 4.39646C30.7276 4.01199 30.5757 3.643 30.3048 3.36959L27.378 0.448746C27.224 0.288776 27.0356 0.165915 26.8269 0.0894733C26.6182 0.013032 26.3949 -0.0149852 26.1738 0.0075672ZM1.31099 9.75897C0.949877 9.79675 0.615722 9.96715 0.373448 10.237C0.131173 10.5069 -0.00192137 10.8571 2.09631e-05 11.2194V28.7446C5.79551e-05 29.1319 0.15425 29.5033 0.428685 29.7772C0.703119 30.0511 1.07532 30.205 1.46343 30.205H34.6341C35.0222 30.205 35.3944 30.0511 35.6689 29.7772C35.9433 29.5033 36.0975 29.1319 36.0975 28.7446V11.2194C36.0975 10.8321 35.9433 10.4607 35.6688 10.1868C35.3944 9.91291 35.0222 9.75901 34.6341 9.75897H1.46343C1.41265 9.75633 1.36177 9.75633 1.31099 9.75897ZM2.92684 12.6798H10.8994C8.99262 14.5395 7.80489 17.125 7.80489 19.982C7.80489 22.8389 8.99262 25.4245 10.8994 27.2841H2.92684V12.6798ZM18.0488 12.6798C22.1072 12.6798 25.3658 15.9318 25.3658 19.982C25.3658 24.0321 22.1072 27.2841 18.0488 27.2841C13.9903 27.2841 10.7317 24.0321 10.7317 19.982C10.7317 15.9318 13.9903 12.6798 18.0488 12.6798ZM25.1981 12.6798H33.1707V27.2841H25.1981C27.1049 25.4245 28.2927 22.8389 28.2927 19.982C28.2927 17.125 27.1049 14.5395 25.1981 12.6798ZM18.0335 13.1362C17.84 13.1382 17.6489 13.1785 17.4711 13.2546C17.2933 13.3308 17.1324 13.4415 16.9977 13.5801C16.8631 13.7188 16.7573 13.8827 16.6865 14.0624C16.6157 14.2421 16.5813 14.434 16.5854 14.6271V14.7792C15.1645 15.2234 14.1463 16.5934 14.1463 18.0348C14.1463 19.9844 15.9999 21.4424 18.0488 21.4424C18.9441 21.4424 19.0244 21.7214 19.0244 21.9292C19.0244 22.3323 19.0308 22.416 18.5366 22.416H15.6097C15.4159 22.4134 15.2234 22.4492 15.0435 22.5214C14.8636 22.5936 14.6999 22.7007 14.5618 22.8366C14.4238 22.9725 14.3142 23.1344 14.2393 23.3129C14.1645 23.4914 14.126 23.683 14.126 23.8765C14.126 24.07 14.1645 24.2616 14.2393 24.4401C14.3142 24.6186 14.4238 24.7805 14.5618 24.9164C14.6999 25.0522 14.8636 25.1594 15.0435 25.2316C15.2234 25.3038 15.4159 25.3396 15.6097 25.3369H16.5854C16.5826 25.5304 16.6184 25.7226 16.6908 25.9021C16.7631 26.0817 16.8704 26.2452 17.0066 26.383C17.1427 26.5208 17.305 26.6303 17.4839 26.705C17.6628 26.7797 17.8548 26.8182 18.0488 26.8182C18.2427 26.8182 18.4347 26.7797 18.6136 26.705C18.7925 26.6303 18.9548 26.5208 19.091 26.383C19.2271 26.2452 19.3345 26.0817 19.4068 25.9021C19.4791 25.7226 19.5149 25.5304 19.5122 25.3369V25.2C20.9331 24.7558 21.9512 23.3705 21.9512 21.9292C21.9512 19.9796 20.0977 18.5215 18.0488 18.5216C17.1534 18.5216 17.0732 18.2426 17.0732 18.0348C17.0732 17.6316 17.0668 17.5479 17.561 17.5479H20.4878C20.6817 17.5507 20.8742 17.5149 21.0542 17.4428C21.2342 17.3706 21.398 17.2635 21.5361 17.1276C21.6742 16.9917 21.7838 16.8298 21.8587 16.6512C21.9335 16.4727 21.9721 16.2811 21.9721 16.0875C21.9721 15.894 21.9335 15.7023 21.8587 15.5238C21.7838 15.3452 21.6742 15.1833 21.5361 15.0474C21.398 14.9116 21.2342 14.8044 21.0542 14.7323C20.8742 14.6601 20.6817 14.6243 20.4878 14.6271H19.5122C19.5163 14.4315 19.4809 14.237 19.4082 14.0553C19.3356 13.8736 19.227 13.7083 19.0891 13.5693C18.9512 13.4302 18.7867 13.3202 18.6054 13.2458C18.424 13.1714 18.2296 13.1342 18.0335 13.1362ZM9.58842 31.1634C9.25678 31.207 8.95012 31.3627 8.71952 31.6046L5.79269 34.5254C5.52183 34.7989 5.36991 35.1678 5.36991 35.5523C5.36991 35.9368 5.52183 36.3058 5.79269 36.5792L8.71952 39.5C8.8511 39.6504 9.01219 39.7723 9.19284 39.8582C9.37349 39.944 9.56986 39.9919 9.76981 39.9991C9.96977 40.0062 10.1691 39.9723 10.3554 39.8996C10.5417 39.8268 10.7111 39.7167 10.8531 39.5761C10.9951 39.4354 11.1067 39.2672 11.181 39.0818C11.2553 38.8964 11.2907 38.6977 11.285 38.4981C11.2794 38.2985 11.2327 38.1022 11.1481 37.9213C11.0634 37.7404 10.9424 37.5787 10.7927 37.4463L10.3659 37.0204H29.2683C29.4621 37.0231 29.6546 36.9872 29.8345 36.915C30.0144 36.8428 30.1781 36.7357 30.3162 36.5998C30.4542 36.4639 30.5639 36.302 30.6387 36.1235C30.7135 35.945 30.752 35.7534 30.752 35.5599C30.752 35.3664 30.7135 35.1749 30.6387 34.9963C30.5639 34.8178 30.4542 34.6559 30.3162 34.52C30.1781 34.3841 30.0144 34.277 29.8345 34.2048C29.6546 34.1326 29.4621 34.0968 29.2683 34.0995H10.3506L10.7927 33.6583C11.0122 33.4447 11.159 33.1676 11.2123 32.8662C11.2655 32.5649 11.2226 32.2544 11.0895 31.9787C10.9564 31.703 10.7399 31.476 10.4706 31.3297C10.2013 31.1834 9.89267 31.1252 9.58842 31.1634Z" fill="#07CB84"/>
</svg>
